<svg width="20" height="20" viewBox="0 0 20 20" fill="none" xmlns="http://www.w3.org/2000/svg">
<rect width="20" height="20" rx="8" fill="black"/>
<path d="M8.05682 14V5.27273H11.0057C11.6903 5.27273 12.25 5.39631 12.6847 5.64347C13.1222 5.88778 13.446 6.21875 13.6562 6.63636C13.8665 7.05398 13.9716 7.51989 13.9716 8.03409C13.9716 8.5483 13.8665 9.01562 13.6562 9.43608C13.4489 9.85653 13.1278 10.1918 12.6932 10.4418C12.2585 10.6889 11.7017 10.8125 11.0227 10.8125H8.90909V9.875H10.9886C11.4574 9.875 11.8338 9.79403 12.1179 9.6321C12.402 9.47017 12.608 9.25142 12.7358 8.97585C12.8665 8.69744 12.9318 8.38352 12.9318 8.03409C12.9318 7.68466 12.8665 7.37216 12.7358 7.09659C12.608 6.82102 12.4006 6.60511 12.1136 6.44886C11.8267 6.28977 11.446 6.21023 10.9716 6.21023H9.11364V14H8.05682Z" fill="white"/>
</svg>
